# xmcd
#
# Track frame offsets:
#	150
#	16220
#	33662
#	51072
#	67871
#	83220
#	100673
#	113430
#	128501
#	143922
#	159992
#	177434
#	194844
#	211643
#	226992
#	244445
#	257202
#	272273
#
# Disc length: 3835
#
# Revision: 4
# Processed by: cddbd v1.5.2PL0 Copyright (c) Steve Scherf et al.
# Submitted via: kJams Pro (development) 1.0patch46.21
#
DISCID=ec0ef912
DTITLE=Various Artist - NSC 3045
DYEAR=2004
DGENRE=Country
TTITLE0=Craig Morgan - Every Friday Afternoon
TTITLE1=Trace Adkins - Hot Mama
TTITLE2=Toby Keith and Scotty Emerick - I Can't Take You Anywhere
TTITLE3=Toby Keith - I Love This Bar
TTITLE4=Terri Clark - I Wanna Do It All
TTITLE5=Reba McEntire - I'm Gonna Take That Mountain
TTITLE6=Brad Paisley - Little Moments
TTITLE7=Shania Twain - She's Not Just A Pretty Face
TTITLE8=Darryl Worley - Tennessee River Run
TTITLE9=Craig Morgan - Vocals - Every Friday Afternoon
TTITLE10=Trace Adkins - Vocals - Hot Mama
TTITLE11=Toby Keith and Scotty Emerick - Vocals - I Can't Take You Anywhere
TTITLE12=Toby Keith - Vocals - i Love This Bar
TTITLE13=Terri Clark - Vocals - I Wanna To Do It All
TTITLE14=Reba McEntire - Vocals - I'm Gonna Take That Mountain
TTITLE15=Brad Paisley - Vocals - Little Moments
TTITLE16=Shania Twain - Vocals - She's Not Just A Pretty Face
TTITLE17=Darryl Worley - Vocals - Tennessee River Run
EXTD=
EXTT0=
EXTT1=
EXTT2=
EXTT3=
EXTT4=
EXTT5=
EXTT6=
EXTT7=
EXTT8=
EXTT9=
EXTT10=
EXTT11=
EXTT12=
EXTT13=
EXTT14=
EXTT15=
EXTT16=
EXTT17=
PLAYORDER=
